<svg width="25" height="21" viewBox="0 0 25 21" fill="none" xmlns="http://www.w3.org/2000/svg">
<path d="M13.5814 3.07861L12.7313 0.527588C12.6293 0.222534 12.3423 0.015625 12.0193 0.015625C11.6963 0.015625 11.4103 0.222534 11.3083 0.528686L10.4584 3.07971L7.90735 3.92859C7.60138 4.03168 7.39539 4.31769 7.39539 4.64069C7.39539 4.96368 7.60138 5.24969 7.90735 5.3526L10.4584 6.20258L11.3083 8.7536C11.4103 9.05957 11.6973 9.26666 12.0193 9.26666C12.3412 9.26666 12.6284 9.05957 12.7303 8.7536L13.5803 6.20258L16.1313 5.3526C16.4373 5.24969 16.6444 4.96368 16.6444 4.64069C16.6444 4.31769 16.4373 4.03168 16.1313 3.92859L13.5814 3.07861Z" fill="white" />
<path d="M19.5121 11.6597L20.12 9.83557L21.9441 9.22858C22.2501 9.12457 22.457 8.83856 22.457 8.51556C22.457 8.19257 22.2501 7.90656 21.9441 7.80365L20.12 7.19666L19.5121 5.37256C19.4101 5.06659 19.123 4.85968 18.8011 4.85968C18.479 4.85968 18.1921 5.06659 18.0901 5.37256L17.482 7.19666L15.657 7.80365C15.351 7.90656 15.1441 8.19257 15.1441 8.51556C15.1441 8.83856 15.351 9.12457 15.657 9.22766L17.4811 9.83466L18.089 11.6586C18.191 11.9645 18.4781 12.1716 18.8 12.1716C19.1221 12.1716 19.4101 11.9645 19.5121 11.6597V11.6597Z" fill="white" />
<path d="M1.45709 5.51556C2.00916 5.51556 2.45721 5.0686 2.45721 4.51562V3.01562C2.45721 2.46356 2.90619 2.01569 3.45715 2.01569H4.95715C5.50922 2.01569 5.95709 1.56854 5.95709 1.01556C5.95709 0.462585 5.50922 0.015625 4.95715 0.015625H3.45715C1.80316 0.015625 0.457153 1.36163 0.457153 3.01562V4.51562C0.457153 5.0686 0.905212 5.51556 1.45709 5.51556Z" fill="white" />
<path d="M21.457 0.015625H19.957C19.4049 0.015625 18.957 0.462585 18.957 1.01556C18.957 1.56854 19.4049 2.01569 19.957 2.01569H21.457C22.0079 2.01569 22.4569 2.46356 22.4569 3.01562V4.51562C22.4569 5.0686 22.905 5.51556 23.457 5.51556C24.0089 5.51556 24.457 5.0686 24.457 4.51562V3.01562C24.457 1.36163 23.111 0.015625 21.457 0.015625Z" fill="white" />
<path d="M4.95715 20.0157C5.50922 20.0157 5.95709 19.5685 5.95709 19.0156C5.95709 18.4626 5.50922 18.0156 4.95715 18.0156H3.45715C2.90619 18.0156 2.45721 17.5676 2.45721 17.0157V15.5157C2.45721 14.9627 2.00916 14.5156 1.45709 14.5156C0.905212 14.5156 0.457153 14.9627 0.457153 15.5157V17.0157C0.457153 18.6697 1.80316 20.0157 3.45715 20.0157H4.95715Z" fill="white" />
<path d="M23.457 14.5156C22.905 14.5156 22.4569 14.9627 22.4569 15.5157V17.0157C22.4569 17.5676 22.0079 18.0156 21.457 18.0156H19.957C19.4049 18.0156 18.957 18.4626 18.957 19.0156C18.957 19.5685 19.4049 20.0157 19.957 20.0157H21.457C23.111 20.0157 24.457 18.6697 24.457 17.0157V15.5157C24.457 14.9627 24.0089 14.5156 23.457 14.5156V14.5156Z" fill="white" />
<path d="M18.3141 14.7845C18.6221 14.3266 18.5001 13.7057 18.0422 13.3966C17.584 13.0877 16.9631 13.2096 16.6541 13.6687C15.666 15.1387 14.0221 16.0155 12.254 16.0155C9.33313 16.0155 6.95715 13.6396 6.95715 10.7187C6.95715 9.77055 7.21002 8.84055 7.68811 8.03068C7.96918 7.5546 7.81116 6.94157 7.33618 6.66068C6.86011 6.38053 6.24707 6.53855 5.966 7.01353C5.30518 8.13157 4.95618 9.41258 4.95618 10.7187C4.95709 14.7426 8.2301 18.0156 12.254 18.0156C14.688 18.0156 16.9542 16.8077 18.3141 14.7845Z" fill="white" />
</svg>
