<svg width="18" height="18" viewBox="0 0 18 18" fill="none" xmlns="http://www.w3.org/2000/svg">
<path fill-rule="evenodd" clip-rule="evenodd" d="M8.18619 0.0186371C7.09828 0.131235 5.98799 0.625408 5.09246 1.39559C4.94193 1.525 4.81375 1.62461 4.80763 1.61692C4.8015 1.60923 4.74944 1.49717 4.69189 1.36788C4.45844 0.842999 3.95926 0.486007 3.40139 0.444939C1.7877 0.326134 -0.00352275 2.38291 5.20305e-06 4.3506C0.0015056 5.18725 0.309167 5.75928 0.922584 6.06575C1.14789 6.17831 1.25478 6.20536 1.53357 6.22028C1.85481 6.23751 1.87026 6.24269 1.84703 6.32556C1.60559 7.18717 1.56601 8.30925 1.74407 9.24448C2.07326 10.9739 3.12415 12.476 4.63772 13.3806L4.93212 13.5565L4.91716 13.7872C4.81375 15.3822 4.43618 16.7912 3.86733 17.7048C3.75865 17.8793 3.76453 17.8882 3.93059 17.8011C4.12904 17.6971 4.45325 17.2844 4.6408 16.8972C4.87259 16.4185 4.98966 16.0391 5.18694 15.1279C5.37907 14.2404 5.57068 13.5862 5.80093 13.0313C6.46605 11.4284 6.49772 11.2866 6.47983 9.99147C6.46613 8.99951 6.4894 8.82451 6.69366 8.38312C7.0486 7.61614 7.88558 7.18179 8.78557 7.29743C9.29644 7.36312 9.52709 7.52912 9.9839 8.15985C10.2548 8.53395 10.3686 8.64367 10.5362 8.69238C10.8621 8.78714 11.3057 8.46772 11.5138 7.98843C11.5563 7.89051 11.6112 7.65993 11.6359 7.47596C11.7299 6.77501 11.9179 6.28614 12.2118 5.97918C12.346 5.83895 12.6051 5.66477 12.6262 5.70054C12.8503 6.0799 13.0033 6.17704 13.147 6.0313C13.2539 5.92294 13.2252 5.80451 13.0386 5.58346L12.8956 5.41417L13.0014 5.2224C13.0882 5.06483 13.1129 4.95013 13.14 4.57912C13.1786 4.05128 13.2618 3.83603 13.5112 3.61964C13.6011 3.54165 13.7513 3.45138 13.8451 3.41898L14.0157 3.36007L14.2691 3.57261C15.1247 4.29008 15.863 5.86785 15.7546 6.74718C15.7332 6.92054 15.712 6.96769 15.6555 6.96769C15.5708 6.96769 15.4494 7.09209 15.4494 7.17891C15.4494 7.27658 15.5451 7.38191 15.6405 7.38918C15.7038 7.39403 15.7467 7.44369 15.7925 7.56533C15.89 7.82412 16.01 7.96455 16.4049 8.28154C17.1886 8.91071 17.6483 9.47444 17.5853 9.72907C17.5695 9.79287 17.4326 9.93857 17.2367 10.1001C16.8762 10.3973 16.6373 10.6665 16.5999 10.8179C16.5593 10.9815 16.6127 11.1942 16.7449 11.3965C16.9285 11.6776 16.9132 11.8053 16.6659 12.0574C16.5544 12.171 16.4632 12.3008 16.4632 12.3457C16.4632 12.3906 16.5278 12.5059 16.6069 12.6019C16.6859 12.6978 16.7452 12.805 16.7385 12.8402C16.7318 12.8754 16.6555 12.942 16.5688 12.9882C16.4822 13.0345 16.3637 13.1356 16.3055 13.213C16.1915 13.3642 16.191 13.372 16.2259 14.3262C16.2368 14.6226 16.2247 14.7046 16.1467 14.8663C15.9674 15.2382 15.517 15.4086 14.9631 15.3138C14.565 15.2457 13.1203 14.8165 12.6108 14.6149C11.922 14.3424 11.0265 13.7037 10.2643 12.9411C9.66857 12.345 9.65645 12.3688 10.0956 13.271C10.4021 13.9007 10.6291 14.542 10.7528 15.1279C10.8663 15.6655 10.8921 16.6043 10.8104 17.2227C10.7355 17.7897 10.7263 18.0841 10.7869 17.9789C10.8083 17.9417 10.8825 17.7475 10.9517 17.5473C11.1088 17.093 11.5031 16.2492 11.6819 15.9849C11.8823 15.6885 12.1634 15.3975 12.3345 15.3089C12.6031 15.17 13.0113 15.2009 13.7665 15.4172C15.3697 15.8765 15.7471 15.8756 16.2561 15.4117C16.6057 15.0931 16.7418 14.5463 16.6272 13.9207C16.5642 13.5766 16.6038 13.4631 16.8319 13.3339C17.1674 13.144 17.2522 12.8597 17.0758 12.5167L16.988 12.346L17.1065 12.2091C17.3616 11.9146 17.3699 11.5577 17.1299 11.2042C17.0531 11.091 16.9903 10.9819 16.9903 10.9618C16.9903 10.8863 17.1745 10.6928 17.4728 10.4548C17.6423 10.3195 17.8329 10.1317 17.8962 10.0374C17.9956 9.88915 18.0091 9.83509 17.9956 9.63921C17.987 9.51452 17.938 9.32444 17.8866 9.21681C17.7581 8.94767 17.2661 8.42912 16.7236 7.99114C16.4262 7.75098 16.2512 7.57898 16.2154 7.49154C16.1776 7.39917 16.1601 7.15001 16.1584 6.67992C16.1561 6.02469 16.1514 5.98765 16.0213 5.59053C15.8518 5.07334 15.636 4.6116 15.3734 4.20441C15.1494 3.85704 14.6467 3.30079 14.4002 3.12756C14.262 3.0305 14.2408 2.99305 14.2191 2.80654C14.134 2.07821 13.3572 1.25212 12.3348 0.802589C11.1339 0.274583 9.21554 -0.0879589 8.18619 0.0186371ZM13.5143 6.31311C13.4648 6.33202 13.4117 6.39816 13.3964 6.46011C13.3723 6.55726 13.3924 6.59425 13.5423 6.72909C13.7332 6.90085 13.8603 6.92539 13.963 6.81028C14.0586 6.70323 14.0464 6.6167 13.9186 6.49391C13.7506 6.33251 13.6183 6.27335 13.5143 6.31311ZM14.4032 6.9348C14.3482 6.99055 14.34 7.1276 14.3872 7.20287C14.4222 7.25866 14.7313 7.37878 14.8399 7.37878C14.8783 7.37878 14.9432 7.34121 14.9841 7.29533C15.0922 7.1743 15.0257 7.01098 14.8411 6.94356C14.6571 6.87639 14.4646 6.87252 14.4032 6.9348ZM11.7699 8.94438C11.6257 8.988 11.5534 9.14915 11.6257 9.2659C11.6866 9.36431 12.1087 9.37899 12.2098 9.28616C12.4372 9.07753 12.1268 8.83639 11.7699 8.94438ZM12.6604 9.37492C12.5158 9.47757 12.5446 9.62042 12.7385 9.76286C12.9199 9.89606 13.0987 9.92225 13.1767 9.82704C13.2674 9.71621 13.2066 9.58342 13.0016 9.44452C12.7734 9.2899 12.7786 9.29097 12.6604 9.37492ZM11.1453 9.55395C11.0681 9.6173 11.0496 9.67177 11.0496 9.83538C11.0496 10.0708 11.1167 10.1742 11.2695 10.1742C11.4306 10.1742 11.4754 10.1014 11.4754 9.83945C11.4754 9.64205 11.4606 9.59284 11.3852 9.53936C11.2712 9.45833 11.261 9.45894 11.1453 9.55395ZM13.5435 10.0098C13.4097 10.1454 13.4459 10.2443 13.6917 10.4145C13.9185 10.5716 14.1112 10.5137 14.1112 10.2884C14.1112 10.195 14.0741 10.1486 13.9208 10.05C13.696 9.90543 13.6511 9.90066 13.5435 10.0098ZM11.6154 10.4798C11.5334 10.6066 11.5808 10.7077 11.7899 10.8517C11.9637 10.9714 12.0522 10.9813 12.1416 10.8907C12.2565 10.7741 12.2196 10.6375 12.037 10.5033C11.8319 10.3527 11.7021 10.3455 11.6154 10.4798ZM14.466 10.5886C14.4238 10.6135 14.3951 10.6796 14.3951 10.7515C14.3951 10.8462 14.4317 10.8995 14.5633 10.9961C14.821 11.1854 15.0033 11.1481 15.0033 10.9062C15.0033 10.8188 14.9631 10.7619 14.835 10.6678C14.6569 10.537 14.5811 10.5207 14.466 10.5886ZM12.5378 11.0457C12.511 11.0729 12.4891 11.1449 12.4891 11.2059C12.4891 11.2937 12.5308 11.3438 12.6904 11.4476C12.9077 11.589 13.0238 11.588 13.0997 11.4443C13.1629 11.3246 13.1142 11.2241 12.9348 11.1038C12.7625 10.9882 12.6157 10.9667 12.5378 11.0457ZM15.3509 11.2254C15.2424 11.3354 15.2751 11.4691 15.4495 11.6288C15.6328 11.7967 15.7288 11.8138 15.8332 11.6969C15.9314 11.5869 15.8898 11.4471 15.7119 11.2887C15.5525 11.1468 15.4467 11.1283 15.3509 11.2254ZM13.4714 11.6359C13.3269 11.7386 13.3556 11.8814 13.5496 12.0239C13.76 12.1784 13.9327 12.1874 13.9957 12.0473C14.059 11.9065 14.0201 11.8364 13.8004 11.6951C13.5768 11.5514 13.5876 11.5534 13.4714 11.6359ZM15.4373 12.3033C15.2716 12.4755 15.2489 12.5929 15.3613 12.696C15.4748 12.8001 15.5563 12.779 15.7332 12.5996C15.9066 12.4239 15.934 12.3158 15.8317 12.212C15.7276 12.1065 15.598 12.1365 15.4373 12.3033ZM14.3545 12.2708C14.2476 12.3791 14.2522 12.4603 14.3713 12.5722C14.5983 12.7855 14.8466 12.8175 14.902 12.6407C14.9435 12.508 14.8935 12.4219 14.7054 12.3016C14.4942 12.1667 14.4601 12.1637 14.3545 12.2708ZM11.1104 12.7104C11.0331 12.7384 10.9482 12.8459 10.9482 12.9158C10.9482 12.9454 10.9847 13.0066 11.0293 13.0518C11.142 13.166 11.4739 13.167 11.5753 13.0535C11.7666 12.8391 11.4336 12.5933 11.1104 12.7104ZM11.9853 13.0896C11.8759 13.212 11.9197 13.3453 12.1039 13.4509C12.3266 13.5785 12.4778 13.5744 12.5385 13.4392C12.5992 13.3042 12.5535 13.2258 12.3433 13.1039C12.1486 12.991 12.0759 12.9881 11.9853 13.0896ZM12.9284 13.5143C12.7765 13.6383 12.8313 13.8175 13.0573 13.9359C13.2313 14.0272 13.369 14.0134 13.444 13.8973C13.532 13.7613 13.4665 13.6439 13.2462 13.5426C13.0451 13.45 13.0108 13.4469 12.9284 13.5143ZM13.8273 13.9974C13.6909 14.1356 13.7324 14.2553 13.9571 14.3715C14.2272 14.5112 14.4384 14.4248 14.3822 14.1976C14.3657 14.1312 14.2949 14.0666 14.1724 14.0062C13.9462 13.8948 13.9289 13.8944 13.8273 13.9974ZM14.7667 14.433C14.6169 14.5393 14.6636 14.6884 14.8911 14.8297C15.1007 14.96 15.2158 14.9547 15.2914 14.8116C15.3571 14.687 15.2801 14.5508 15.0877 14.4512C14.8925 14.3503 14.8839 14.3498 14.7667 14.433Z" fill="white"/>
</svg>
