<svg width="18" height="18" viewBox="0 0 18 18" fill="none" xmlns="http://www.w3.org/2000/svg">
<path fill-rule="evenodd" clip-rule="evenodd" d="M8.13834 0.0186321C7.11176 0.117719 5.96015 0.635199 5.07642 1.39462C4.92569 1.5241 4.79713 1.62376 4.79075 1.61607C4.78433 1.60838 4.72225 1.48013 4.65277 1.33107C4.41286 0.816509 3.93512 0.483998 3.37678 0.442949C2.27142 0.361713 0.995678 1.33053 0.339025 2.74987C0.0793849 3.31116 0.00499331 3.65087 0.000526561 4.29623C-0.00288441 4.78619 0.00824173 4.88396 0.0949373 5.12742C0.337319 5.8079 0.912596 6.24168 1.57229 6.24139C1.78564 6.24127 1.84375 6.25369 1.82775 6.29602C1.75174 6.4967 1.63333 7.32629 1.6142 7.79244C1.56982 8.87445 1.79153 9.91365 2.27374 10.8835C2.76183 11.8653 3.57035 12.7355 4.58077 13.3665L4.90116 13.5666L4.87655 14.0009C4.79717 15.4023 4.38034 16.8876 3.82553 17.7464L3.7325 17.8903L3.87462 17.8017C4.20203 17.5975 4.6297 16.9084 4.88366 16.1756C5.08316 15.6001 5.23962 14.756 5.31892 13.827C5.34357 13.5385 5.36103 13.4886 5.49467 13.3248C5.83841 12.9035 6.19567 12.1617 6.35675 11.5351C6.43748 11.2209 6.44722 11.0744 6.45352 10.0753C6.46144 8.81658 6.49153 8.64761 6.79084 8.18023C7.21059 7.52471 7.95475 7.19446 8.77469 7.29976C9.28613 7.36545 9.51718 7.53158 9.97458 8.16262C10.2456 8.53651 10.3598 8.6467 10.5269 8.69524C10.7915 8.77212 11.1566 8.5672 11.3782 8.21741C11.5073 8.01364 11.5798 7.76352 11.6862 7.15489C11.8086 6.45458 12.025 6.07641 12.4857 5.75789C12.9585 5.43093 13.1323 5.11487 13.1327 4.58135C13.1331 4.17012 13.226 3.91016 13.4558 3.6774C13.6951 3.43501 13.9385 3.34324 14.092 3.4376C14.2705 3.5473 14.7224 4.02212 14.9286 4.31679C15.3186 4.87372 15.6405 5.64062 15.7297 6.22519C15.7517 6.36993 15.7585 6.6885 15.7447 6.93315C15.7057 7.62412 15.7883 7.78553 16.4648 8.33908C17.291 9.0152 17.6662 9.50496 17.5589 9.76734C17.5326 9.83159 17.3701 9.99645 17.1978 10.1336C16.5627 10.6394 16.4499 10.9357 16.7267 11.3709C16.9273 11.6863 16.9174 11.798 16.6658 12.0583C16.5541 12.1738 16.4627 12.3053 16.4627 12.3504C16.4627 12.3956 16.5275 12.5111 16.6067 12.6071C16.6858 12.703 16.7452 12.8097 16.7387 12.844C16.7321 12.8783 16.6627 12.9421 16.5846 12.9857C16.2275 13.1853 16.1523 13.3593 16.1998 13.877C16.2642 14.5808 16.2353 14.7987 16.0486 15.014C15.8855 15.2023 15.7637 15.2632 15.4349 15.3213C15.1048 15.3795 14.6034 15.3218 14.1731 15.1761C13.1993 14.8463 12.5405 14.5953 12.2296 14.4354C11.5647 14.0936 10.9294 13.611 10.2137 12.9043C9.97819 12.6717 9.7804 12.4815 9.77406 12.4815C9.73833 12.4815 9.77329 12.6715 9.84374 12.8604C10.0722 13.4727 10.8749 14.1851 11.9249 14.7073C12.0757 14.7823 12.199 14.8556 12.199 14.8704C12.199 14.8851 12.1241 14.9496 12.0326 15.0139C11.5551 15.3491 11.0855 16.0959 10.9041 16.8084C10.8202 17.1382 10.717 17.9113 10.7454 17.9977C10.7544 18.025 10.8499 17.8085 10.9576 17.5164C11.5584 15.8869 12.1698 15.1432 12.8578 15.2051C12.9757 15.2157 13.3202 15.3191 13.6234 15.435C15.0974 15.9984 16.1851 15.8438 16.5444 15.02C16.6576 14.7604 16.6916 14.3188 16.6256 13.9648C16.5541 13.581 16.5826 13.4987 16.8465 13.3278C16.9676 13.2493 17.0861 13.1483 17.1098 13.1033C17.1812 12.9684 17.16 12.6904 17.0656 12.5202L16.9782 12.3627L17.1044 12.2171C17.3668 11.9144 17.3692 11.5638 17.1115 11.1844C17.045 11.0865 16.9906 10.9873 16.9906 10.9639C16.9906 10.8915 17.2124 10.6615 17.5095 10.4257C17.8611 10.1469 17.9717 9.9881 17.9965 9.72679C18.0285 9.38975 17.8433 9.0521 17.3641 8.57328C17.1475 8.35693 16.8176 8.06263 16.631 7.91933C16.1679 7.56362 16.1316 7.47852 16.1644 6.82584C16.1981 6.15452 16.0709 5.57514 15.7309 4.85151C15.422 4.19397 14.8345 3.43476 14.3969 3.12755C14.2579 3.03002 14.2374 2.99341 14.2154 2.80343C14.1596 2.32235 13.7106 1.67436 13.1546 1.27241C12.399 0.726306 11.0866 0.283151 9.63112 0.0826333C9.04249 0.00156236 8.53913 -0.0200319 8.13834 0.0186321ZM12.6538 11.5848C12.5131 11.7274 12.5812 11.8162 13.7106 12.963L14.8162 14.0856H14.5851C14.3982 14.0856 14.346 14.1008 14.312 14.1652C14.253 14.2768 14.2596 14.3572 14.3338 14.4323C14.4271 14.5268 15.3717 14.5268 15.465 14.4323C15.5583 14.3378 15.5583 13.381 15.465 13.2865C15.3908 13.2114 15.3114 13.2047 15.2012 13.2644C15.1377 13.2989 15.1227 13.3517 15.1227 13.5418V13.7766L14.0159 12.656C12.8829 11.5089 12.7961 11.4407 12.6538 11.5848ZM17.3277 13.7189C17.2179 13.76 17.1819 13.8757 17.2171 14.0735C17.253 14.2755 17.3007 14.3324 17.4341 14.3324C17.5827 14.3324 17.6403 14.2618 17.6403 14.0801C17.6403 13.7755 17.5268 13.6443 17.3277 13.7189ZM17.2423 14.8368C17.2189 14.8653 17.1598 14.9969 17.1109 15.1291C17.0007 15.4276 17.0392 15.5664 17.2325 15.5664C17.3748 15.5664 17.4553 15.4636 17.5423 15.1706C17.5931 14.9999 17.5925 14.965 17.538 14.8807C17.4704 14.7761 17.3114 14.7524 17.2423 14.8368ZM16.4368 15.9986C16.1932 16.1653 16.1534 16.2412 16.2394 16.3742C16.3253 16.507 16.4706 16.498 16.6883 16.3463C16.9446 16.1677 17.0043 16.0386 16.8862 15.9189C16.7887 15.8201 16.6657 15.842 16.4368 15.9986ZM13.9617 16.3273C13.9005 16.4219 13.9004 16.4382 13.9604 16.531C14.0272 16.6343 14.2192 16.6961 14.3925 16.6702C14.6085 16.6379 14.6038 16.3466 14.386 16.2697C14.1726 16.1944 14.0356 16.213 13.9617 16.3273ZM15.3054 16.3441C15.048 16.3768 15.0009 16.4083 15.0009 16.5477C15.0009 16.72 15.07 16.7592 15.3745 16.7592C15.5965 16.7592 15.6665 16.7431 15.7318 16.6769C15.7765 16.6317 15.813 16.5669 15.813 16.533C15.813 16.446 15.6644 16.3056 15.5795 16.3125C15.5405 16.3157 15.4171 16.3299 15.3054 16.3441Z" fill="white"/>
</svg>
