<svg width="19" height="24" viewBox="0 0 19 24" fill="none" xmlns="http://www.w3.org/2000/svg">
<path d="M7.34778 0.703125C7.34778 1.86628 8.294 2.8125 9.45715 2.8125C10.6203 2.8125 11.5665 1.86628 11.5665 0.703125V0H7.34778V0.703125Z" fill="white" />
<path d="M16.4884 23.2969V19.3629C16.4884 17.5556 16.0751 15.753 15.3217 14.1094H10.1834C10.2409 14.7418 10.6015 15.3015 11.1779 15.5898C11.5253 15.7635 11.6661 16.1858 11.4924 16.5332C11.3194 16.8783 10.8995 17.0218 10.5489 16.8477C10.1036 16.6247 9.74942 16.2938 9.45715 15.9183C9.16489 16.2939 8.81075 16.6247 8.36539 16.8477C8.01443 17.022 7.59481 16.878 7.42193 16.5332C7.24822 16.1858 7.38898 15.7635 7.73642 15.5898C8.31284 15.3015 8.67345 14.7418 8.73092 14.1094H3.59262C2.83925 15.753 2.4259 17.5557 2.4259 19.3629V23.2969C2.4259 23.6855 2.74039 24 3.12903 24H8.0509C8.31734 24 8.56039 23.8496 8.67987 23.6114L9.45715 22.0568L10.2344 23.6114C10.3539 23.8496 10.597 24 10.8634 24H15.7853C16.1739 24 16.4884 23.6855 16.4884 23.2969Z" fill="white" />
<path d="M17.8947 9.89062C18.2833 9.89062 18.5978 9.57614 18.5978 9.1875V4.92188C18.5978 2.20823 16.3895 0 13.6759 0H12.9728V0.703125C12.9728 2.64155 11.3956 4.21875 9.45715 4.21875C7.51873 4.21875 5.94153 2.64155 5.94153 0.703125V0H5.2384C2.52476 0 0.316528 2.20823 0.316528 4.92188V9.1875C0.316528 9.57614 0.631013 9.89062 1.01965 9.89062H2.4259V4.92188C2.4259 4.53323 2.74039 4.21875 3.12903 4.21875C3.51767 4.21875 3.83215 4.53323 3.83215 4.92188V12.7031H15.0822V4.92188C15.0822 4.53323 15.3966 4.21875 15.7853 4.21875C16.1739 4.21875 16.4884 4.53323 16.4884 4.92188V9.89062H17.8947ZM12.2697 7.03125H10.8634C10.4748 7.03125 10.1603 6.71677 10.1603 6.32812C10.1603 5.93948 10.4748 5.625 10.8634 5.625H12.2697C12.6583 5.625 12.9728 5.93948 12.9728 6.32812C12.9728 6.71677 12.6583 7.03125 12.2697 7.03125Z" fill="white" />
</svg>
