<svg width="13" height="24" viewBox="0 0 13 24" fill="none" xmlns="http://www.w3.org/2000/svg">
<path d="M11.4025 23.2969C11.4025 23.6852 11.7173 24 12.1056 24C12.4939 24 12.8087 23.6852 12.8087 23.2969C12.8087 18.3772 10.767 15.4906 8.43026 13.0088C8.26897 13.1712 8.10823 13.332 7.94867 13.4915C7.77631 13.6639 7.60545 13.8348 7.43656 14.0049C7.6715 14.255 7.90179 14.508 8.12562 14.7656H4.78859C5.46762 13.984 6.20534 13.2461 6.95426 12.4972C9.83253 9.61898 12.8087 6.6428 12.8087 0.703125C12.8087 0.314812 12.4939 0 12.1056 0C11.7173 0 11.4025 0.314812 11.4025 0.703125C11.4025 0.944953 11.3969 1.18106 11.3863 1.41211H1.52797C1.51742 1.18106 1.51184 0.944953 1.51184 0.703125C1.51184 0.314812 1.19703 0 0.808716 0C0.420403 0 0.105591 0.314812 0.105591 0.703125C0.105591 5.62275 2.14733 8.50936 4.48404 10.9912C4.64534 10.8288 4.80608 10.668 4.96564 10.5085C5.138 10.3361 5.30886 10.1652 5.47775 9.99511C5.25031 9.75295 5.02718 9.50817 4.81006 9.25898H8.10434C7.43122 10.0315 6.70109 10.7618 5.96 11.5028C3.08178 14.381 0.105591 17.3572 0.105591 23.2969C0.105591 23.6852 0.420403 24 0.808716 24C1.19703 24 1.51184 23.6852 1.51184 23.2969C1.51184 23.0636 1.51718 22.8358 1.52698 22.6125H11.3873C11.3971 22.8358 11.4025 23.0636 11.4025 23.2969ZM9.23248 16.1719C9.6342 16.7457 9.99636 17.3543 10.3049 18.0138H2.60947C2.918 17.3543 3.28011 16.7457 3.68187 16.1719H9.23248ZM11.2512 2.81836C11.1558 3.45464 11.0173 4.04747 10.8424 4.60458H2.07195C1.89701 4.04747 1.75845 3.45459 1.66306 2.81836H11.2512ZM3.69931 7.85273C3.29567 7.27875 2.93145 6.67036 2.621 6.01083H10.2933C9.98286 6.67036 9.61864 7.27875 9.215 7.85273H3.69931ZM1.65945 21.2062C1.75358 20.57 1.89083 19.9772 2.06436 19.42H10.85C11.0235 19.9772 11.1607 20.57 11.2549 21.2062H1.65945Z" fill="white"/>
</svg>
