<svg width="21" height="13" viewBox="0 0 21 13" fill="none" xmlns="http://www.w3.org/2000/svg">
<path fill-rule="evenodd" clip-rule="evenodd" d="M9.87186 0.686352C6.47807 0.881759 3.27494 2.69822 0.721248 5.87551C0.0544678 6.70511 0.0549896 6.8525 0.727751 7.69181C3.27618 10.8712 6.49035 12.6866 9.90016 12.8726C13.7594 13.0831 17.4059 11.261 20.2786 7.68679C20.9454 6.8572 20.9449 6.7098 20.2721 5.8705C18.4105 3.54799 16.1957 1.95229 13.7464 1.16897C12.9856 0.925638 12.0638 0.747838 11.3429 0.705283C10.5561 0.658878 10.3865 0.656712 9.87186 0.686352ZM11.3489 2.55371C12.5025 2.77069 13.6111 3.55477 14.2115 4.57845C14.9361 5.81382 15.0125 7.30817 14.4157 8.5709C14.1828 9.06367 13.9602 9.38417 13.5769 9.77896C11.4313 11.9884 7.77571 11.3129 6.53133 8.47701C6.08226 7.45361 6.07379 6.20347 6.50874 5.13672C6.93188 4.09888 7.85201 3.19015 8.89718 2.77795C9.692 2.46451 10.4876 2.39171 11.3489 2.55371ZM10.0785 4.49338C9.42576 4.63444 8.84801 5.0413 8.51714 5.59295C8.27391 5.99848 8.1923 6.29957 8.19511 6.78115C8.19788 7.24585 8.23927 7.43327 8.42515 7.82292C8.59598 8.18093 9.09486 8.67787 9.46064 8.85438C10.7487 9.4759 12.2469 8.84372 12.7105 7.48305C12.8431 7.0938 12.8468 6.48355 12.719 6.07757C12.4272 5.15103 11.5757 4.50541 10.6003 4.47128C10.4016 4.46434 10.1668 4.47429 10.0785 4.49338Z" fill="white"/>
</svg>
