<svg width="25" height="24" viewBox="0 0 25 24" fill="none" xmlns="http://www.w3.org/2000/svg">
<path d="M21.4265 22.0878C21.4265 22.0878 22.3491 16.4066 20.9204 12.9623C20.9204 12.9623 20.1544 10.1865 20.158 9.40877C20.158 9.40877 12.1495 14.7033 9.0446 14.2482C9.0446 14.2482 13.1603 11.4914 13.8316 10.051C13.8316 10.051 7.49067 14.4638 5.38332 14.123C5.38332 14.123 7.49722 12.687 7.94432 11.9144C7.94432 11.9144 2.94903 12.8946 2.81723 17.9976L2.24634 22.2094C2.24634 22.2094 1.18174 17.0692 0.828574 15.8815C-0.260779 12.2173 1.23635 5.9492 2.87038 4.68508C2.87038 4.68508 5.88577 -0.518476 16.6417 1.07842C16.6417 1.07842 22.3455 1.35585 24.3123 9.0556C24.7718 10.8535 24.0472 14.8854 23.4589 16.4131C22.8756 17.9292 21.3632 23.2259 21.3632 23.2259L21.4265 22.0878ZM10.2876 21.1317C11.2845 20.4042 11.6114 17.5338 11.6872 16.6694C11.701 16.5245 11.6493 16.3803 11.5459 16.2726C11.4425 16.1648 11.2976 16.1036 11.1447 16.1036H4.21824C4.06532 16.1036 3.92042 16.1648 3.81701 16.2726C3.71361 16.3789 3.66264 16.5245 3.67502 16.6694C3.75075 17.5338 4.07843 20.4042 5.0753 21.1317C5.82023 21.6735 7.14624 21.7317 7.68145 21.7317C8.21666 21.7317 9.54195 21.6735 10.2876 21.1317ZM10.541 17.1471C10.3633 18.5576 9.99123 20.0351 9.62787 20.2987C9.36209 20.4931 8.65721 20.6868 7.68145 20.6868C6.70497 20.6868 6.00009 20.4909 5.73503 20.2987C5.3724 20.0351 5.0003 18.5554 4.8219 17.1471H10.541ZM19.8391 21.1317C20.8352 20.4042 21.1622 17.5338 21.2387 16.6694C21.2525 16.5245 21.1993 16.3803 21.0981 16.2726C20.994 16.1648 20.8491 16.1036 20.6969 16.1036H13.769C13.6168 16.1036 13.4719 16.1648 13.3678 16.2726C13.2637 16.3789 13.2134 16.5245 13.2273 16.6694C13.303 17.5338 13.6307 20.4042 14.6268 21.1317C15.371 21.6735 16.6985 21.7317 17.233 21.7317C17.7674 21.7317 19.0927 21.6735 19.8391 21.1317ZM20.0918 17.1471C19.9148 18.5576 19.542 20.0351 19.1786 20.2987C18.9136 20.4931 18.208 20.6868 17.2322 20.6868C16.2557 20.6868 15.5509 20.4909 15.2851 20.2987C14.9232 20.0351 14.5496 18.5554 14.3719 17.1471H20.0918ZM14.2627 17.6204C14.2627 17.3321 14.0188 17.0976 13.718 17.0976H11.1949C10.8934 17.0976 10.6502 17.3313 10.6502 17.6204C10.6502 17.9095 10.8934 18.1433 11.1949 18.1433H13.718C14.0195 18.1433 14.2627 17.9088 14.2627 17.6204Z" fill="white" />
</svg>
