<svg width="25" height="13" viewBox="0 0 25 13" fill="none" xmlns="http://www.w3.org/2000/svg">
<path fill-rule="evenodd" clip-rule="evenodd" d="M9.01708 0.695746C8.39048 0.785358 7.77256 1.05836 7.18697 1.50431C6.9934 1.65173 6.38102 2.22709 5.82612 2.78296C5.27122 3.33878 4.65884 3.90754 4.46527 4.04686C3.84834 4.49095 3.0574 4.85586 1.44733 5.43927C0.961783 5.61519 0.560566 5.7708 0.555733 5.78502C0.5509 5.79925 0.800358 5.98441 1.11007 6.19649C2.09608 6.87166 2.66097 7.37605 4.26588 9.0142C6.26328 11.0529 6.72302 11.4343 7.8674 12.0021C8.7154 12.4227 9.58038 12.6755 10.683 12.825C11.311 12.91 13.6642 12.9104 14.2962 12.8255C16.1416 12.5776 17.5492 11.9674 18.8541 10.8495C19.0638 10.6698 19.919 9.82492 20.7546 8.972C22.3156 7.37834 22.8727 6.8822 23.8691 6.19807C24.1788 5.98546 24.4377 5.79757 24.4443 5.78061C24.4511 5.76361 24.2927 5.69742 24.0924 5.63353C23.4617 5.43223 21.9656 4.84345 21.4428 4.59076C20.6647 4.21464 20.3055 3.93096 19.1539 2.78268C18.5727 2.20315 17.9524 1.61873 17.7756 1.48395C17.0716 0.947578 16.3399 0.685449 15.5398 0.683006C14.5841 0.680132 13.7885 1.08283 13.2171 1.85864C12.8747 2.32355 12.5365 3.07201 12.5365 3.36493C12.5365 3.42662 12.5154 3.47715 12.4896 3.47715C12.4638 3.47715 12.4427 3.42662 12.4427 3.36493C12.4427 3.07201 12.1045 2.32355 11.7621 1.85864C11.1224 0.990109 10.0715 0.544877 9.01708 0.695746ZM13.7459 5.87387C15.6163 6.07134 16.3498 6.11804 18.0034 6.14486C19.4868 6.16895 20.8898 6.13197 21.9686 6.04045L22.2267 6.01856L21.8982 6.09208C21.7176 6.1325 20.5667 6.40023 19.3408 6.68698C16.7085 7.30272 15.9722 7.45622 14.878 7.61758C13.6587 7.79733 12.6435 7.8527 11.711 7.79024C10.1359 7.68478 9.02684 7.48414 5.82612 6.72563C4.9357 6.51461 3.87987 6.26876 3.47983 6.17924C3.06571 6.08662 2.8636 6.02641 3.01057 6.03944C5.32312 6.24467 8.4238 6.18231 11.1991 5.87482C12.2559 5.75772 12.6447 5.75758 13.7459 5.87387Z" fill="white"/>
</svg>
