<svg width="25" height="24" viewBox="0 0 25 24" fill="none" xmlns="http://www.w3.org/2000/svg">
<path d="M1.51784 11.9316C2.07823 9.83304 3.39875 8.07124 5.17517 6.95984C3.30865 6.52512 1.91028 4.85656 1.91028 2.85945C1.91028 2.85663 1.91103 2.85406 1.91103 2.8512C1.0137 4.05054 0.457153 5.50465 0.457153 7.01088C0.457153 7.91177 0.565153 8.15482 1.31633 11.1301L1.51784 11.9316Z" fill="white" />
<path d="M12.0929 7.54272C11.3275 7.25622 10.5088 7.07819 9.64465 7.07819C5.75267 7.07819 2.6134 10.2296 2.6134 14.1094C2.6134 17.9965 5.76303 24.0001 9.64465 24.0001C10.6495 24.0001 11.6033 23.5955 12.4681 22.9364C10.2902 20.5667 8.94153 16.9013 8.94153 14.1094C8.94153 11.4574 10.1738 9.09067 12.0929 7.54272V7.54272Z" fill="white" />
<path d="M6.12903 5.67194H9.64465C11.0359 5.67194 12.3433 6.02289 13.5009 6.62397C14.6634 6.01919 15.9805 5.67194 17.379 5.67194C17.816 5.67194 18.2419 5.71553 18.6612 5.77989C18.0778 2.52686 15.243 6.10352e-05 11.8243 6.10352e-05H6.12903C4.59097 6.10352e-05 3.31653 1.30323 3.31653 2.85944C3.31653 4.40626 4.5822 5.67194 6.12903 5.67194V5.67194Z" fill="white" />
<path d="M16.1768 19.7351C16.4878 20.064 16.9472 20.4376 17.3791 20.4376C17.8144 20.4376 18.2752 20.0572 18.5814 19.7337C18.2704 19.4049 17.811 19.0313 17.3791 19.0313C16.9438 19.0313 16.4831 19.4117 16.1768 19.7351Z" fill="white" />
<path d="M12.6612 14.1101C12.9722 14.439 13.4316 14.8126 13.8635 14.8126C14.2988 14.8126 14.7596 14.4322 15.0658 14.1087C14.7548 13.7799 14.2954 13.4063 13.8635 13.4063C13.4282 13.4063 12.9674 13.7867 12.6612 14.1101Z" fill="white" />
<path d="M17.379 7.07819C13.487 7.07819 10.3478 10.2296 10.3478 14.1094C10.3478 17.9965 13.4974 24.0001 17.379 24.0001C21.2607 24.0001 24.4572 17.9965 24.4572 14.1094C24.4572 10.2326 21.2558 7.07819 17.379 7.07819ZM13.8634 16.2188C12.3665 16.2188 11.2885 14.6773 11.1704 14.5015C11.0111 14.2646 11.0111 13.9542 11.1704 13.7173C11.2885 13.5416 12.3665 12.0001 13.8634 12.0001C15.3603 12.0001 16.4383 13.5416 16.5564 13.7174C16.7157 13.9543 16.7157 14.2646 16.5564 14.5015C16.4383 14.6773 15.3603 16.2188 13.8634 16.2188ZM20.072 20.1265C19.954 20.3023 18.8759 21.8438 17.379 21.8438C15.8821 21.8438 14.8041 20.3023 14.686 20.1265C14.5267 19.8896 14.5267 19.5792 14.686 19.3423C14.8041 19.1666 15.8821 17.6251 17.379 17.6251C18.8759 17.6251 19.954 19.1666 20.072 19.3424C20.2314 19.5792 20.2314 19.8896 20.072 20.1265V20.1265ZM23.5877 13.7174C23.7469 13.9543 23.7469 14.2646 23.5877 14.5015C23.4696 14.6773 22.3916 16.2188 20.8947 16.2188C19.3977 16.2188 18.3197 14.6773 18.2016 14.5015C18.0424 14.2646 18.0424 13.9542 18.2016 13.7173C18.3197 13.5416 19.3977 12.0001 20.8947 12.0001C22.3916 12.0001 23.4696 13.5416 23.5877 13.7174Z" fill="white" />
<path d="M19.6924 14.1101C20.0035 14.439 20.4628 14.8126 20.8947 14.8126C21.3301 14.8126 21.7908 14.4322 22.097 14.1087C21.786 13.7799 21.3266 13.4063 20.8947 13.4063C20.4594 13.4063 19.9987 13.7867 19.6924 14.1101Z" fill="white" />
</svg>
