<svg width="25" height="14" viewBox="0 0 25 14" fill="none" xmlns="http://www.w3.org/2000/svg">
<path fill-rule="evenodd" clip-rule="evenodd" d="M7.1176 0.0735503C6.86218 0.192342 6.80928 0.33204 6.89863 0.651428C7.17803 1.64995 8.10924 2.7868 9.20271 3.46434L9.69491 3.76933L9.75715 4.14757C9.86299 4.7904 9.88105 6.05807 9.7918 6.57846C9.62484 7.55202 9.4915 7.73581 8.69975 8.08367C8.15832 8.32157 7.55563 8.48937 5.61384 8.94304C3.90197 9.34296 3.1729 9.56496 2.50264 9.89041C1.66204 10.2985 0.829916 11.1262 0.383369 11.9983C0.107787 12.5364 0.00297601 12.9124 0.000235849 13.3726C-0.00181927 13.7226 0.00693945 13.7555 0.133721 13.8736L0.269358 14H12.5H24.7306L24.8663 13.8736C24.9931 13.7555 25.0018 13.7226 24.9998 13.3726C24.9942 12.4385 24.4006 11.3667 23.4048 10.4927C22.6464 9.82709 21.8409 9.5165 19.3862 8.94304C17.4444 8.48937 16.8417 8.32157 16.3003 8.08367C15.7119 7.82518 15.4751 7.61675 15.3633 7.25878C15.1364 6.53232 15.0476 5.49991 15.1357 4.61308C15.2194 3.77152 15.2098 3.79525 15.5402 3.61497C16.7549 2.95228 17.794 1.74993 18.1014 0.651428C18.1918 0.328032 18.1375 0.191294 17.8702 0.0697243C17.6923 -0.0112159 17.6811 -0.0112159 17.5038 0.0697243C17.3597 0.135497 17.3013 0.201451 17.2286 0.380914C16.8657 1.27586 16.3548 1.96305 15.6775 2.4675C13.8185 3.8521 11.1815 3.8521 9.32254 2.4675C8.64656 1.96405 8.09378 1.22038 7.77724 0.388429C7.72004 0.238073 7.64483 0.140644 7.54007 0.081157C7.35203 -0.0255638 7.33143 -0.0259282 7.1176 0.0735503Z" fill="white"/>
</svg>
