<svg width="21" height="22" viewBox="0 0 21 22" fill="none" xmlns="http://www.w3.org/2000/svg">
<path fill-rule="evenodd" clip-rule="evenodd" d="M9.85516 0.326504C9.1986 0.646027 8.43122 1.82432 7.75126 3.55717C7.60453 3.93102 7.11184 5.37867 6.65636 6.77413C6.20084 8.16959 5.59761 9.97302 5.31583 10.7818L4.80347 12.2522L4.30581 12.4983C1.70484 13.7847 0.22344 15.4936 0.222169 17.2091C0.221595 17.9646 0.416115 18.4427 0.937253 18.9666C1.20608 19.2369 1.33896 19.3336 1.65639 19.4901C2.47415 19.8934 3.17357 20.034 4.37065 20.0362L5.22005 20.0377L5.33383 19.9233C5.42371 19.833 5.4476 19.7709 5.4476 19.6275C5.4476 19.3913 5.3351 19.2697 5.00323 19.1474C4.60948 19.0022 4.07875 18.7243 3.79914 18.5168C3.23944 18.1014 3.17394 17.695 3.6177 17.3908C4.10765 17.0551 5.26247 17.4465 6.00091 18.1986C6.18658 18.3877 6.34716 18.6138 6.53074 18.9444C6.93097 19.6653 7.14951 19.9707 7.50629 20.3077C8.54721 21.2909 10.1741 21.5994 11.6456 21.0926C12.1334 20.9247 12.5666 20.6601 12.9492 20.2967C13.2954 19.9679 13.4791 19.709 13.9852 18.8375C14.1909 18.4832 14.3428 18.2762 14.5093 18.123C15.2834 17.4109 16.3602 17.0708 16.8273 17.3908C17.271 17.695 17.2055 18.1014 16.6458 18.5168C16.3662 18.7243 15.8355 19.0022 15.4417 19.1474C15.1099 19.2697 14.9973 19.3913 14.9973 19.6275C14.9973 19.7709 15.0212 19.833 15.1111 19.9233L15.2249 20.0377L16.0743 20.0362C17.2714 20.034 17.9708 19.8934 18.7886 19.4901C19.106 19.3336 19.2389 19.2369 19.5077 18.9666C20.0343 18.4372 20.2216 17.9772 20.2222 17.2117C20.2236 15.4958 18.7422 13.7857 16.1391 12.4983L15.6415 12.2522L15.1291 10.7818C14.8473 9.97302 14.2441 8.16959 13.7886 6.77413C13.3331 5.37867 12.8404 3.93102 12.6937 3.55717C12.0092 1.81277 11.2425 0.639302 10.5817 0.324648C10.2938 0.187515 10.14 0.187887 9.85516 0.326504Z" fill="white"/>
</svg>
